<svg width="47" height="52" viewBox="0 0 47 52" fill="none" xmlns="http://www.w3.org/2000/svg">
<path d="M22.6493 28.8606C28.3864 28.8606 33.0372 24.1371 33.0372 18.3104C33.0372 12.4837 28.3864 7.76025 22.6493 7.76025C16.9123 7.76025 12.2615 12.4837 12.2615 18.3104C12.2615 24.1371 16.9123 28.8606 22.6493 28.8606Z" fill="#A0616A"/>
<path d="M14.0513 31.2229L16.2167 25.6026L27.4047 23.8921L28.6067 36.3333L17.2984 36.5777L14.0513 31.2229Z" fill="#A0616A"/>
<path d="M33.1379 20.257C33.003 20.8056 32.7305 22.1117 32.3049 22.1181C31.9572 22.1232 31.6244 16.4569 31.9717 15.5197C32.3707 14.4429 31.3222 13.0809 30.5324 12.3817C29.1124 11.1245 25.9602 13.824 22.7549 12.6011C22.6699 12.5687 22.6868 12.5724 21.6746 12.1623C18.5601 10.9002 18.3964 10.8637 18.2179 10.8457C16.7081 10.694 14.8655 11.9488 14.1131 13.4788C13.3309 15.0691 13.9844 16.4332 13.2489 20.2808C13.1632 20.7293 13.0286 21.3684 12.8168 21.3779C12.4297 21.395 12.0517 19.2949 11.9527 18.7448C11.5379 16.4403 11.138 14.2185 11.9527 11.7234C12.0415 11.4513 12.5892 10.4412 13.681 8.43212C15.2539 5.53787 16.0449 4.08529 16.2735 3.8243C17.9131 1.95173 20.8974 0.243516 23.403 0.971843C24.6694 1.33997 24.4423 1.9318 25.9955 2.50778C28.7634 3.53417 31.169 2.27893 31.6127 3.16604C31.8477 3.63595 31.1901 4.02336 31.1806 4.9214C31.1642 6.46226 33.083 6.90753 34.2052 8.43211C34.8084 9.25172 35.841 9.26051 33.1378 20.257L33.1379 20.257V20.257Z" fill="#2F2E41"/>
<path d="M46.569 40.5083C46.1503 40.9861 45.716 41.454 45.2661 41.911C39.2222 48.0493 31.1861 51.43 22.6387 51.43C15.2511 51.43 8.24598 48.9045 2.57859 44.2556C2.57498 44.2532 2.57257 44.2507 2.56899 44.247C1.81711 43.6313 1.08929 42.9764 0.386719 42.2848C0.399935 42.1773 0.414386 42.071 0.430011 41.9659C0.528666 41.2573 0.638157 40.5816 0.760838 39.9597C1.76536 34.8624 14.9828 29.5109 15.3269 29.3715C15.3317 29.3703 15.3341 29.3691 15.3341 29.3691C15.3341 29.3691 17.0352 35.7372 24.3242 35.6553C29.289 35.6003 28.3266 29.3691 28.3266 29.3691C28.3266 29.3691 28.3867 29.3813 28.4998 29.4058C29.9338 29.7149 39.8899 31.9361 43.8177 34.9675C45.0147 35.8911 45.8736 37.8583 46.4908 40.2041C46.5172 40.3043 46.5425 40.4069 46.569 40.5083V40.5083Z" fill="#FDC323"/>
</svg>
