<svg width="54" height="37" viewBox="0 0 54 37" fill="none" xmlns="http://www.w3.org/2000/svg">
<path d="M3.86037 15V2.4H6.59637L13.2024 11.4L12.6084 11.31C12.5484 10.914 12.5004 10.536 12.4644 10.176C12.4284 9.816 12.3924 9.462 12.3564 9.114C12.3324 8.766 12.3084 8.412 12.2844 8.052C12.2724 7.692 12.2604 7.302 12.2484 6.882C12.2484 6.462 12.2484 6.006 12.2484 5.514V2.4H15.2184V15H12.4464L5.55237 5.712L6.47037 5.838C6.53037 6.414 6.57837 6.906 6.61437 7.314C6.66237 7.71 6.69837 8.064 6.72237 8.376C6.75837 8.688 6.78237 8.97 6.79437 9.222C6.80637 9.474 6.81237 9.726 6.81237 9.978C6.82437 10.218 6.83037 10.488 6.83037 10.788V15H3.86037ZM22.5739 15.18C21.5779 15.18 20.6899 14.964 19.9099 14.532C19.1419 14.1 18.5299 13.512 18.0739 12.768C17.6299 12.024 17.4079 11.172 17.4079 10.212C17.4079 9.252 17.6299 8.4 18.0739 7.656C18.5299 6.912 19.1419 6.324 19.9099 5.892C20.6899 5.46 21.5779 5.244 22.5739 5.244C23.5699 5.244 24.4519 5.46 25.2199 5.892C25.9999 6.324 26.6119 6.912 27.0559 7.656C27.4999 8.4 27.7219 9.252 27.7219 10.212C27.7219 11.172 27.4999 12.024 27.0559 12.768C26.6119 13.512 25.9999 14.1 25.2199 14.532C24.4519 14.964 23.5699 15.18 22.5739 15.18ZM22.5739 12.696C23.0059 12.696 23.3899 12.588 23.7259 12.372C24.0619 12.156 24.3259 11.862 24.5179 11.49C24.7099 11.118 24.7999 10.692 24.7879 10.212C24.7999 9.732 24.7099 9.306 24.5179 8.934C24.3259 8.55 24.0619 8.25 23.7259 8.034C23.3899 7.818 23.0059 7.71 22.5739 7.71C22.1419 7.71 21.7519 7.818 21.4039 8.034C21.0679 8.25 20.8039 8.55 20.6119 8.934C20.4199 9.306 20.3299 9.732 20.3419 10.212C20.3299 10.692 20.4199 11.118 20.6119 11.49C20.8039 11.862 21.0679 12.156 21.4039 12.372C21.7519 12.588 22.1419 12.696 22.5739 12.696ZM30.3971 15V3.03H33.2771V15H30.3971ZM28.7051 7.962V5.442H35.1311V7.962H28.7051ZM41.2431 15.18C40.1871 15.18 39.2691 14.97 38.4891 14.55C37.7091 14.118 37.1031 13.536 36.6711 12.804C36.2391 12.06 36.0231 11.214 36.0231 10.266C36.0231 9.534 36.1431 8.862 36.3831 8.25C36.6231 7.638 36.9591 7.11 37.3911 6.666C37.8231 6.21 38.3331 5.862 38.9211 5.622C39.5211 5.37 40.1751 5.244 40.8831 5.244C41.5551 5.244 42.1671 5.364 42.7191 5.604C43.2831 5.844 43.7691 6.18 44.1771 6.612C44.5851 7.044 44.8971 7.554 45.1131 8.142C45.3291 8.73 45.4251 9.372 45.4011 10.068L45.3831 10.842H37.7691L37.3551 9.222H43.0431L42.7371 9.564V9.204C42.7131 8.904 42.6171 8.64 42.4491 8.412C42.2931 8.172 42.0831 7.986 41.8191 7.854C41.5551 7.722 41.2551 7.656 40.9191 7.656C40.4511 7.656 40.0491 7.752 39.7131 7.944C39.3891 8.124 39.1431 8.394 38.9751 8.754C38.8071 9.102 38.7231 9.534 38.7231 10.05C38.7231 10.578 38.8311 11.04 39.0471 11.436C39.2751 11.82 39.5991 12.12 40.0191 12.336C40.4511 12.552 40.9611 12.66 41.5491 12.66C41.9571 12.66 42.3171 12.6 42.6291 12.48C42.9531 12.36 43.3011 12.156 43.6731 11.868L45.0231 13.776C44.6511 14.1 44.2551 14.364 43.8351 14.568C43.4151 14.772 42.9831 14.922 42.5391 15.018C42.1071 15.126 41.6751 15.18 41.2431 15.18ZM0.280828 31L5.26683 18.4H7.85883L12.8088 31H9.71283L7.33683 24.61C7.24083 24.358 7.14483 24.088 7.04883 23.8C6.95283 23.512 6.85683 23.218 6.76083 22.918C6.66483 22.606 6.56883 22.306 6.47283 22.018C6.38883 21.718 6.31683 21.442 6.25683 21.19L6.79683 21.172C6.72483 21.472 6.64083 21.766 6.54483 22.054C6.46083 22.342 6.37083 22.63 6.27483 22.918C6.19083 23.194 6.09483 23.476 5.98683 23.764C5.87883 24.04 5.77683 24.328 5.68083 24.628L3.30483 31H0.280828ZM2.65683 28.588L3.61083 26.284H9.40683L10.3428 28.588H2.65683ZM18.2731 35.14C17.4931 35.14 16.7131 35.026 15.9331 34.798C15.1651 34.57 14.5411 34.276 14.0611 33.916L15.0691 31.9C15.3211 32.068 15.5971 32.212 15.8971 32.332C16.2091 32.464 16.5331 32.566 16.8691 32.638C17.2051 32.71 17.5471 32.746 17.8951 32.746C18.5071 32.746 19.0051 32.656 19.3891 32.476C19.7731 32.296 20.0611 32.02 20.2531 31.648C20.4451 31.288 20.5411 30.832 20.5411 30.28V28.678L21.0991 28.768C21.0151 29.164 20.8051 29.524 20.4691 29.848C20.1451 30.172 19.7431 30.436 19.2631 30.64C18.7831 30.832 18.2731 30.928 17.7331 30.928C16.8691 30.928 16.0951 30.73 15.4111 30.334C14.7391 29.926 14.2051 29.368 13.8091 28.66C13.4251 27.94 13.2331 27.112 13.2331 26.176C13.2331 25.216 13.4251 24.37 13.8091 23.638C14.1931 22.894 14.7211 22.312 15.3931 21.892C16.0651 21.46 16.8211 21.244 17.6611 21.244C18.0211 21.244 18.3631 21.286 18.6871 21.37C19.0231 21.454 19.3291 21.568 19.6051 21.712C19.8931 21.844 20.1451 22.006 20.3611 22.198C20.5891 22.378 20.7691 22.576 20.9011 22.792C21.0451 23.008 21.1411 23.23 21.1891 23.458L20.5951 23.602L20.7031 21.442H23.4391V30.226C23.4391 31.006 23.3191 31.696 23.0791 32.296C22.8511 32.908 22.5091 33.424 22.0531 33.844C21.6091 34.276 21.0691 34.6 20.4331 34.816C19.7971 35.032 19.0771 35.14 18.2731 35.14ZM18.3451 28.696C18.8131 28.696 19.2151 28.594 19.5511 28.39C19.8991 28.174 20.1631 27.88 20.3431 27.508C20.5351 27.136 20.6311 26.698 20.6311 26.194C20.6311 25.69 20.5351 25.252 20.3431 24.88C20.1631 24.496 19.8991 24.202 19.5511 23.998C19.2151 23.782 18.8131 23.674 18.3451 23.674C17.8891 23.674 17.4931 23.782 17.1571 23.998C16.8211 24.202 16.5571 24.496 16.3651 24.88C16.1851 25.252 16.0951 25.69 16.0951 26.194C16.0951 26.698 16.1851 27.136 16.3651 27.508C16.5571 27.88 16.8211 28.174 17.1571 28.39C17.4931 28.594 17.8891 28.696 18.3451 28.696ZM29.4681 31.162C28.6641 31.162 27.9441 30.952 27.3081 30.532C26.6841 30.1 26.1861 29.512 25.8141 28.768C25.4421 28.012 25.2561 27.16 25.2561 26.212C25.2561 25.24 25.4421 24.382 25.8141 23.638C26.1861 22.894 26.6961 22.312 27.3441 21.892C27.9921 21.46 28.7301 21.244 29.5581 21.244C30.0141 21.244 30.4281 21.31 30.8001 21.442C31.1841 21.574 31.5201 21.76 31.8081 22C32.0961 22.228 32.3421 22.498 32.5461 22.81C32.7501 23.11 32.9001 23.434 32.9961 23.782L32.4021 23.71V21.442H35.2641V31H32.3481V28.696L32.9961 28.678C32.9001 29.014 32.7441 29.332 32.5281 29.632C32.3121 29.932 32.0481 30.196 31.7361 30.424C31.4241 30.652 31.0761 30.832 30.6921 30.964C30.3081 31.096 29.9001 31.162 29.4681 31.162ZM30.2601 28.732C30.7041 28.732 31.0881 28.63 31.4121 28.426C31.7361 28.222 31.9881 27.934 32.1681 27.562C32.3481 27.178 32.4381 26.728 32.4381 26.212C32.4381 25.696 32.3481 25.252 32.1681 24.88C31.9881 24.496 31.7361 24.202 31.4121 23.998C31.0881 23.782 30.7041 23.674 30.2601 23.674C29.8281 23.674 29.4501 23.782 29.1261 23.998C28.8141 24.202 28.5681 24.496 28.3881 24.88C28.2081 25.252 28.1181 25.696 28.1181 26.212C28.1181 26.728 28.2081 27.178 28.3881 27.562C28.5681 27.934 28.8141 28.222 29.1261 28.426C29.4501 28.63 29.8281 28.732 30.2601 28.732ZM37.9673 31V21.442H40.8473V31H37.9673ZM39.4073 19.552C38.8673 19.552 38.4413 19.426 38.1293 19.174C37.8293 18.91 37.6793 18.538 37.6793 18.058C37.6793 17.626 37.8353 17.272 38.1473 16.996C38.4593 16.72 38.8793 16.582 39.4073 16.582C39.9473 16.582 40.3673 16.714 40.6673 16.978C40.9673 17.23 41.1173 17.59 41.1173 18.058C41.1173 18.502 40.9613 18.862 40.6493 19.138C40.3493 19.414 39.9353 19.552 39.4073 19.552ZM43.5534 31V21.442H46.2894L46.3794 23.386L45.8034 23.602C45.9354 23.17 46.1694 22.78 46.5054 22.432C46.8534 22.072 47.2674 21.784 47.7474 21.568C48.2274 21.352 48.7314 21.244 49.2594 21.244C49.9794 21.244 50.5854 21.394 51.0774 21.694C51.5694 21.982 51.9414 22.42 52.1934 23.008C52.4454 23.584 52.5714 24.292 52.5714 25.132V31H49.6734V25.366C49.6734 24.982 49.6194 24.664 49.5114 24.412C49.4034 24.16 49.2354 23.974 49.0074 23.854C48.7914 23.722 48.5214 23.662 48.1974 23.674C47.9454 23.674 47.7114 23.716 47.4954 23.8C47.2794 23.872 47.0934 23.986 46.9374 24.142C46.7814 24.286 46.6554 24.454 46.5594 24.646C46.4754 24.838 46.4334 25.048 46.4334 25.276V31H45.0114C44.6754 31 44.3874 31 44.1474 31C43.9074 31 43.7094 31 43.5534 31Z" fill="#D77451"/>
<path d="M1 10L27 10L53 10" stroke="#D77451" stroke-width="1.7"/>
</svg>
